<svg width="20" height="18" viewBox="0 0 20 18" fill="none" xmlns="http://www.w3.org/2000/svg">
<path d="M10 0.75C8.44259 0.75 7.09399 1.49659 6.13281 2.57812C5.68954 2.42622 5.25265 2.25 4.75 2.25C2.27378 2.25 0.25 4.27378 0.25 6.75C0.25 8.96272 1.88922 10.7404 4 11.1094V16.5V17.25H4.75H15.25H16V16.5V11.1094C18.1108 10.7404 19.75 8.96272 19.75 6.75C19.75 4.27378 17.7262 2.25 15.25 2.25C14.7473 2.25 14.3105 2.42622 13.8672 2.57812C12.906 1.49659 11.5574 0.75 10 0.75ZM10 2.25C11.257 2.25 12.3642 2.8746 13.0469 3.82031L13.3984 4.3125L13.9609 4.05469C14.361 3.86451 14.7957 3.75 15.25 3.75C16.9153 3.75 18.25 5.08472 18.25 6.75C18.25 8.41528 16.9153 9.75 15.25 9.75C14.339 9.75 13.5275 9.35497 12.9766 8.71875L11.8516 9.70312C12.5192 10.4741 13.4528 11.0033 14.5 11.1797V15.75H5.5V11.1797C5.97565 11.0997 6.42143 10.9527 6.83594 10.7344L6.15625 9.39844C5.73946 9.61793 5.25709 9.75 4.75 9.75C3.08472 9.75 1.75 8.41528 1.75 6.75C1.75 5.08472 3.08472 3.75 4.75 3.75C5.20426 3.75 5.63901 3.86451 6.03906 4.05469L6.60156 4.3125L6.95312 3.82031C7.63579 2.8746 8.74301 2.25 10 2.25Z" fill="#929292"/>
</svg>
