<svg width="16" height="18" viewBox="0 0 16 18" fill="none" xmlns="http://www.w3.org/2000/svg">
<path d="M8 0.75C5.10939 0.75 2.75 3.10939 2.75 6C2.75 7.80663 3.67337 9.41409 5.07031 10.3594C2.39496 11.5068 0.5 14.1609 0.5 17.25H2C2 15.3501 2.87948 13.6605 4.25 12.5625L7.48438 15.5391L8 16.0312L8.51562 15.5391L11.75 12.5625C13.1205 13.6605 14 15.3501 14 17.25H15.5C15.5 14.1609 13.605 11.5068 10.9297 10.3594C12.3266 9.41409 13.25 7.80663 13.25 6C13.25 3.10939 10.8906 0.75 8 0.75ZM8 2.25C10.08 2.25 11.75 3.92005 11.75 6C11.75 8.07995 10.08 9.75 8 9.75C5.92005 9.75 4.25 8.07995 4.25 6C4.25 3.92005 5.92005 2.25 8 2.25ZM8 11.25C8.85718 11.25 9.67771 11.4208 10.4141 11.7422L8 13.9922L5.58594 11.7422C6.32229 11.4208 7.14282 11.25 8 11.25Z" fill="#929292"/>
</svg>
