<svg width="19" height="18" viewBox="0 0 19 18" fill="none" xmlns="http://www.w3.org/2000/svg">
<path d="M10.5938 0C8.11596 0 5.35562 0.42143 3.30469 2.69531C1.25375 4.96919 0 8.91027 0 15.75V16.5H0.75H6.49219C7.23384 16.9685 8.06928 17.25 9 17.25C9.93011 17.25 10.7661 16.9628 11.5078 16.5H18H18.75V15.75C18.75 9.65603 17.5723 6.11665 16.0312 4.05469C14.6744 2.23921 13.112 1.73419 11.9531 1.61719L11.25 0.375L11.0391 0H10.5938ZM10.1719 1.54688L10.7812 2.625L10.9922 3H11.4375C12.1955 3 13.5733 3.25578 14.8359 4.94531C16.0385 6.55435 17.1008 9.6227 17.2031 15H13.1719C13.2541 14.8948 13.3297 14.7812 13.4062 14.6719C14.4245 13.218 15 11.405 15 9.75H13.5C13.5 11.0417 13.0171 12.6202 12.1875 13.8047C11.3579 14.9892 10.2485 15.75 9 15.75C7.75268 15.75 6.64246 14.9914 5.8125 13.8047C4.98254 12.618 4.5 11.0333 4.5 9.75C4.5 9.4171 4.56389 9.24992 4.66406 9.11719C4.76424 8.98446 4.93824 8.87018 5.20312 8.76562C5.7329 8.55652 6.62663 8.46999 7.57031 8.39062C8.514 8.31126 9.49763 8.23652 10.3828 7.82812C11.268 7.41973 12 6.49528 12 5.25H10.5C10.5 6.03309 10.2945 6.22835 9.77344 6.46875C9.25237 6.70915 8.361 6.8123 7.42969 6.89062C6.49837 6.96895 5.5171 7.01343 4.64062 7.35938C4.20239 7.53235 3.77873 7.7924 3.46875 8.20312C3.15877 8.61385 3 9.16246 3 9.75C3 11.3985 3.5759 13.1931 4.59375 14.6484C4.6765 14.7668 4.76218 14.8862 4.85156 15H1.54688C1.64747 8.87811 2.82915 5.47764 4.42969 3.70312C5.99518 1.96746 8.01702 1.59157 10.1719 1.54688ZM6.75 9.75C6.33579 9.75 6 10.0858 6 10.5C6 10.9142 6.33579 11.25 6.75 11.25C7.16421 11.25 7.5 10.9142 7.5 10.5C7.5 10.0858 7.16421 9.75 6.75 9.75ZM11.25 9.75C10.8358 9.75 10.5 10.0858 10.5 10.5C10.5 10.9142 10.8358 11.25 11.25 11.25C11.6642 11.25 12 10.9142 12 10.5C12 10.0858 11.6642 9.75 11.25 9.75Z" fill="#929292"/>
</svg>
