<svg width="19" height="19" viewBox="0 0 19 19" fill="none" xmlns="http://www.w3.org/2000/svg">
<path d="M18.25 0.835938L17.3594 1.02344L5.35938 3.27344L4.75 3.36719V4V13.4219C4.30556 13.1605 3.79932 13 3.25 13C1.60203 13 0.25 14.352 0.25 16C0.25 17.648 1.60203 19 3.25 19C4.89797 19 6.25 17.648 6.25 16V7.60938L16.75 5.64062V11.1719C16.3056 10.9105 15.7993 10.75 15.25 10.75C13.602 10.75 12.25 12.102 12.25 13.75C12.25 15.398 13.602 16.75 15.25 16.75C16.898 16.75 18.25 15.398 18.25 13.75V1.75V0.835938ZM16.75 2.64062V4.14062L6.25 6.10938V4.60938L16.75 2.64062ZM15.25 12.25C16.0873 12.25 16.75 12.9127 16.75 13.75C16.75 14.5873 16.0873 15.25 15.25 15.25C14.4127 15.25 13.75 14.5873 13.75 13.75C13.75 12.9127 14.4127 12.25 15.25 12.25ZM3.25 14.5C4.08731 14.5 4.75 15.1627 4.75 16C4.75 16.8373 4.08731 17.5 3.25 17.5C2.41269 17.5 1.75 16.8373 1.75 16C1.75 15.1627 2.41269 14.5 3.25 14.5Z" fill="#929292"/>
</svg>
