<svg width="110" height="27" viewBox="0 0 110 27" fill="none" xmlns="http://www.w3.org/2000/svg">
<path d="M107.377 23.2104C106.9 23.215 106.444 23.4082 106.109 23.7478C105.775 24.0873 105.588 24.5456 105.59 25.0224C105.593 25.4993 105.784 25.9557 106.122 26.2921C106.46 26.6284 106.917 26.8172 107.394 26.8172C107.871 26.8172 108.328 26.6284 108.666 26.2921C109.004 25.9557 109.195 25.4993 109.197 25.0224C109.2 24.5456 109.013 24.0873 108.678 23.7478C108.344 23.4082 107.888 23.215 107.411 23.2104H107.377ZM107.377 26.6108C107.064 26.616 106.757 26.5283 106.494 26.3589C106.231 26.1895 106.024 25.9459 105.899 25.659C105.775 25.3721 105.738 25.0547 105.794 24.7469C105.85 24.4392 105.996 24.155 106.214 23.9301C106.431 23.7053 106.71 23.55 107.016 23.4839C107.322 23.4178 107.64 23.4438 107.931 23.5587C108.222 23.6736 108.472 23.8721 108.65 24.1292C108.828 24.3864 108.926 24.6905 108.931 25.0032V25.0298C108.94 25.44 108.786 25.837 108.502 26.1333C108.218 26.4296 107.828 26.6011 107.418 26.61H107.377M100.454 22.7177H96.5349V16.5807C96.5349 15.1172 96.5088 13.2334 94.4967 13.2334C92.4557 13.2334 92.1434 14.8278 92.1434 16.4741V22.7173H88.2246V10.0971H91.9866V11.8218H92.0393C92.4158 11.178 92.9598 10.6485 93.6135 10.2895C94.2671 9.93049 95.0059 9.75551 95.7511 9.78317C99.723 9.78317 100.455 12.3957 100.455 15.7945L100.454 22.7177ZM83.8029 8.37199C83.3531 8.37207 82.9134 8.23877 82.5393 7.98896C82.1653 7.73914 81.8738 7.38402 81.7016 6.96851C81.5294 6.553 81.4843 6.09575 81.5719 5.6546C81.6596 5.21344 81.8761 4.80819 82.1941 4.49009C82.5121 4.17199 82.9173 3.95533 83.3584 3.8675C83.7995 3.77967 84.2568 3.82463 84.6723 3.99668C85.0879 4.16873 85.4431 4.46014 85.6931 4.83408C85.943 5.20801 86.0765 5.64767 86.0766 6.09745C86.0766 6.39609 86.0179 6.69182 85.9036 6.96775C85.7894 7.24368 85.6219 7.49441 85.4108 7.70562C85.1997 7.91683 84.949 8.08439 84.6731 8.19873C84.3972 8.31306 84.1015 8.37194 83.8029 8.37199ZM85.7623 22.7177H81.8394V10.0971H85.7623V22.7177ZM102.407 0.18454H79.8702C79.3586 0.178768 78.8657 0.376315 78.4998 0.733772C78.1338 1.09123 77.9248 1.57935 77.9185 2.09088V24.7216C77.9245 25.2334 78.1335 25.7218 78.4994 26.0796C78.8654 26.4375 79.3584 26.6354 79.8702 26.63H102.407C102.92 26.6364 103.415 26.439 103.782 26.0812C104.149 25.7234 104.36 25.2344 104.367 24.7216V2.08924C104.359 1.5767 104.149 1.08803 103.782 0.730579C103.414 0.373131 102.92 0.176148 102.407 0.182908M67.2524 13.1431C65.293 13.1431 64.1174 14.4514 64.1174 16.3578C64.1174 18.2641 65.2926 19.5737 67.2524 19.5737C69.2122 19.5737 70.3903 18.2674 70.3903 16.3578C70.3903 14.4482 69.2143 13.1431 67.2524 13.1431ZM73.9981 22.7103H70.3903V21.0367H70.3369C69.8842 21.6454 69.2972 22.1415 68.6214 22.4862C67.9457 22.8309 67.1994 23.0149 66.4409 23.0238C62.6756 23.0238 60.1953 20.3064 60.1953 16.4635C60.1953 12.9341 62.3902 9.69336 65.9984 9.69336C67.6202 9.69336 69.1351 10.1371 70.0238 11.367H70.0752V4.09233H73.9977L73.9981 22.7103ZM55.1637 14.9348C55.1712 14.6168 55.1141 14.3007 54.9958 14.0055C54.8775 13.7103 54.7006 13.4422 54.4756 13.2174C54.2507 12.9926 53.9824 12.8158 53.6871 12.6977C53.3919 12.5796 53.0757 12.5227 52.7577 12.5304C52.073 12.4878 51.399 12.716 50.881 13.1658C50.3629 13.6155 50.0424 14.2509 49.9885 14.9348H55.1637ZM58.4833 20.5272C57.8321 21.3169 57.0134 21.9519 56.0866 22.3862C55.1597 22.8204 54.1479 23.0431 53.1243 23.0381C49.2055 23.0381 46.068 20.4223 46.068 16.3717C46.068 12.321 49.2051 9.70643 53.1243 9.70643C56.7872 9.70643 59.0842 12.319 59.0842 16.3717V17.6004H49.9885C50.1017 18.2972 50.463 18.9297 51.0057 19.3812C51.5484 19.8327 52.236 20.0728 52.9418 20.0574C53.4996 20.0539 54.0477 19.911 54.5361 19.6417C55.0246 19.3723 55.4379 18.9851 55.7385 18.5152L58.4833 20.5272ZM19.5263 10.0938H23.2895V11.8185H23.343C23.7189 11.1745 24.2627 10.6447 24.9162 10.2857C25.5697 9.9266 26.3085 9.7518 27.0536 9.7799C31.0276 9.7799 31.7591 12.3945 31.7591 15.7912V22.712H27.8403V16.5762C27.8403 15.1115 27.8133 13.2289 25.7992 13.2289C23.7623 13.2289 23.4479 14.8237 23.4479 16.4696V22.7103H19.5291L19.5263 10.0938ZM33.7462 4.09355H37.665V15.2234L42.1063 10.0869H46.911L41.7675 15.9296L46.8028 22.7181H41.8773L37.7173 16.4798H37.6659V22.7173H33.747L33.7462 4.09355ZM13.4346 10.0926H17.3534V22.7128H13.4346V10.0926ZM15.394 3.81842C15.8436 3.8185 16.2831 3.9519 16.6568 4.20174C17.0306 4.45158 17.3219 4.80666 17.4939 5.22206C17.6659 5.63746 17.7109 6.09453 17.6231 6.53549C17.5354 6.97644 17.3188 7.38147 17.0009 7.69936C16.6829 8.01724 16.2779 8.23372 15.8369 8.3214C15.3959 8.40908 14.9389 8.36404 14.5235 8.19197C14.1081 8.01989 13.7531 7.72852 13.5033 7.35468C13.2536 6.98084 13.1202 6.54134 13.1202 6.09173C13.1202 5.79316 13.1791 5.49752 13.2933 5.22168C13.4076 4.94584 13.5751 4.69522 13.7862 4.48411C13.9974 4.27301 14.248 4.10557 14.5239 3.99135C14.7997 3.87713 15.0954 3.81836 15.394 3.81842ZM0 4.09641H4.07923V18.9552H11.6311V22.7197H0V4.09641ZM107.663 25.1282C107.73 25.1288 107.796 25.1157 107.858 25.0896C107.92 25.0635 107.976 25.0249 108.022 24.9764C108.068 24.9278 108.104 24.8702 108.127 24.8072C108.151 24.7442 108.16 24.6771 108.157 24.6101C108.157 24.2428 107.935 24.0672 107.48 24.0672H106.745V25.9907H107.022V25.1522H107.361L107.369 25.1624L107.896 25.9907H108.192L107.625 25.1335L107.663 25.1282ZM107.343 24.9355H107.023V24.2852H107.429C107.639 24.2852 107.878 24.3195 107.878 24.5942C107.878 24.9102 107.636 24.9355 107.341 24.9355" fill="#161212"/>
</svg>
