<svg width="100" height="101" viewBox="0 0 100 101" fill="none" xmlns="http://www.w3.org/2000/svg">
<path d="M99.9594 25.5454C99.9594 22.4675 99.7 19.4022 98.9657 16.4057C97.6469 10.9476 94.5377 6.77811 89.8847 3.71592C87.491 2.15198 84.8567 1.19172 82.0568 0.685005C79.9069 0.29402 77.7288 0.115731 75.5476 0.0656854C75.3851 0.050046 75.207 0.0156394 75.0258 0H24.9305C24.2961 0.050046 23.6618 0.0813248 23.0274 0.112604C19.9181 0.290892 16.8276 0.616192 13.8964 1.78914C8.33099 3.98804 4.30924 7.8322 1.96556 13.3717C1.15309 15.2453 0.743727 17.2315 0.453111 19.2521C0.209368 20.8817 0.0781226 22.527 0.031249 24.1722C0.031249 24.3036 0 24.4318 0 24.5632V75.5382C0.031249 76.1262 0.0656229 76.7111 0.096872 77.2992C0.309365 80.7054 0.746852 84.0773 2.18118 87.2052C4.88422 93.12 9.42471 97.0111 15.6589 98.8847C17.3995 99.4226 19.2244 99.6666 21.0462 99.8293C23.3586 100.058 25.6679 100.089 27.9804 100.089H73.9414C76.1226 100.089 78.3038 99.9419 80.485 99.6666C83.9193 99.2256 87.141 98.2153 90.0566 96.2948C93.5565 93.9801 96.1939 90.918 97.8844 87.0894C98.6657 85.3284 99.1063 83.458 99.4313 81.5656C99.9031 78.7474 100 75.8948 100 73.0453C99.9844 57.2088 100 41.3755 99.9844 25.5391L99.9594 25.5454ZM73.2008 42.1763V65.995C73.2008 67.7373 72.9571 69.4482 72.1759 71.0278C70.9728 73.4863 69.0197 75.0346 66.3979 75.7853C64.948 76.2076 63.4511 76.4359 61.9387 76.5016C57.9826 76.6986 54.5483 74.0087 53.8483 70.0988C53.2452 66.874 54.792 63.3207 58.1763 61.6598C59.5106 61.0092 60.9606 60.6182 62.4074 60.3242C63.9855 59.9833 65.5636 59.6736 67.126 59.3139C68.2822 59.0543 69.0291 58.3536 69.2572 57.1619C69.3228 56.9023 69.3385 56.6239 69.3385 56.3643C69.3385 48.7886 69.3385 41.2129 69.3385 33.6559C69.3385 33.3963 69.2885 33.1336 69.226 32.8896C69.0635 32.2547 68.6072 31.8793 67.9573 31.9106C67.2885 31.9419 66.6385 32.0576 65.9886 32.189C62.8137 32.8083 59.6419 33.4432 56.4826 34.0938L41.0706 37.2061C41.005 37.2217 40.9237 37.2561 40.8581 37.2561C39.7019 37.5814 39.2957 38.1038 39.2457 39.308C39.23 39.4863 39.2457 39.6677 39.2457 39.846C39.23 50.6966 39.2457 61.5472 39.23 72.3947C39.23 74.1557 39.0332 75.8823 38.3363 77.5088C37.1801 80.18 35.1302 81.8596 32.3646 82.6572C30.899 83.0795 29.4022 83.3266 27.871 83.3735C23.8836 83.5205 20.5619 80.865 19.8806 76.9395C19.2931 73.552 20.84 69.9018 24.6805 68.2721C26.1773 67.6528 27.7241 67.3119 29.3022 66.9866C30.4897 66.7426 31.6959 66.4986 32.8833 66.2547C34.477 65.9137 35.3083 64.9034 35.3895 63.2738V62.6545C35.3895 50.3056 35.3895 37.9568 35.3895 25.6079C35.3895 25.0856 35.4551 24.5663 35.5676 24.0596C35.8614 22.871 36.7082 22.186 37.8457 21.9076C38.905 21.6293 39.9956 21.4353 41.0675 21.207C44.1267 20.5877 47.1704 19.9684 50.2297 19.3647L59.6856 17.441C62.4855 16.8874 65.2667 16.3181 68.0666 15.7645C68.9791 15.5862 69.9072 15.3891 70.8322 15.3235C72.1165 15.2109 73.0133 16.0241 73.1446 17.3284C73.1758 17.6381 73.1946 17.9477 73.1946 18.2574C73.1946 26.2241 73.1946 34.1908 73.1946 42.1575L73.2008 42.1763Z" fill="#161212"/>
</svg>
