<svg width="100" height="66" viewBox="0 0 100 66" fill="none" xmlns="http://www.w3.org/2000/svg">
<path d="M99.9998 0.380981H78.3779V12.9986H99.9998V0.380981Z" fill="#161212"/>
<path d="M99.9998 17.953H78.3779V30.5706H99.9998V17.953Z" fill="#161212"/>
<path d="M99.9998 35.5164H78.3779V48.134H99.9998V35.5164Z" fill="#161212"/>
<path d="M21.6215 53.0903H0V65.7079H21.6215V53.0903Z" fill="#161212"/>
<path d="M47.746 53.0903H26.1245V65.7079H47.746V53.0903Z" fill="#161212"/>
<path d="M73.8754 53.0903H52.2539V65.7079H73.8754V53.0903Z" fill="#161212"/>
<path d="M99.9998 53.0903H78.3779V65.7079H99.9998V53.0903Z" fill="#161212"/>
<path d="M73.8754 35.5164H52.2539V48.134H73.8754V35.5164Z" fill="#161212"/>
<path d="M47.746 35.5164H26.1245V48.134H47.746V35.5164Z" fill="#161212"/>
<path d="M47.746 17.953H26.1245V30.5706H47.746V17.953Z" fill="#161212"/>
</svg>
