<svg width="549" height="315" viewBox="0 0 549 315" fill="none" xmlns="http://www.w3.org/2000/svg">
<path d="M144.215 23.7563C144.763 20.6034 124.201 0.314575 98.1546 -21.7563L83.0751 -34.5053C81.1559 -36.1504 81.7039 -39.3034 84.1715 -39.9888L88.4206 -41.3596C102.129 -46.0206 102.541 -44.2385 82.8006 -70.2849L68.4066 -89.477C48.8032 -115.523 40.4404 -123.2 40.4404 -115.112C40.4404 -112.233 54.0117 -90.1624 68.2687 -69.8736C79.6468 -53.6974 82.9369 -48.3511 81.2919 -48.3511C81.1548 -48.3511 75.8084 -47.3915 69.6395 -46.4319C51.4071 -43.2789 49.0771 -40.6742 59.2215 -35.0537C66.35 -31.0782 101.17 -1.33046 117.072 14.5715C131.603 29.1027 142.433 32.804 144.215 23.7563Z" fill="#161212"/>
<path d="M502.694 -55.6189C495.566 -69.6016 458.826 -106.889 445.255 -114.017C421.539 -126.492 415.919 -128 397.412 -127.863C391.244 -127.726 380.414 -126.629 373.011 -125.258C339.974 -118.953 319.41 -107.849 282.671 -76.4559C259.23 -56.4414 219.748 -0.647461 219.748 12.3757C219.748 16.8995 216.184 17.1737 204.669 13.7466C176.703 5.38432 155.181 17.585 116.797 63.7829C90.0657 95.861 95.2752 98.6027 100.622 106.142L96.509 113.408C78.8249 144.801 86.502 223.899 161.214 233.769C177.527 235.963 203.847 232.261 211.936 226.641C216.734 223.351 217.829 224.036 219.063 231.165C228.385 289.289 338.328 296.006 386.308 241.446C392.888 233.906 394.671 232.673 396.727 233.769C404.541 237.882 411.943 230.616 432.917 198.127C457.592 160.017 457.456 144.115 432.644 112.997L423.184 101.207L434.973 89.8292C444.432 95.7239 445.529 98.3286 455.125 83.5233C458.552 78.314 463.488 71.7339 465.955 69.1293C468.423 66.5246 470.615 63.7829 470.615 63.3716C470.615 62.8233 474.866 56.6544 480.075 49.6631C503.791 17.9962 514.621 -32.4513 502.694 -55.6189ZM267.455 -40.6765C277.6 -55.3447 306.935 -84.681 319.136 -92.632C361.495 -119.912 400.291 -127.589 421.402 -116.348C462.117 -94.5513 461.842 -67.4083 420.854 2.09425C416.604 9.22272 412.902 16.077 412.354 17.4479C411.806 19.0929 410.298 19.9154 407.556 19.9154C403.032 19.9154 398.235 19.23 401.251 15.1174C443.199 -44.7891 452.246 -78.5122 421.813 -99.4863C387.405 -123.202 325.168 -95.0996 276.777 -36.9752C266.495 -24.6375 262.246 -33.1368 267.455 -40.6765ZM364.101 55.5577C365.883 57.3399 364.512 58.4366 360.125 62.8233C332.845 55.2836 327.087 50.0743 298.025 69.1293C292.816 72.5564 292.267 72.8306 285.139 62.275C282.26 58.0253 283.905 48.9776 287.744 48.9776C290.897 48.9776 289.937 45.2763 285.687 40.4783C280.341 34.4465 282.671 29.6485 289.662 32.5273C300.081 36.777 303.097 34.4465 319.821 9.63399C343.811 -26.1454 379.454 -55.4818 411.121 -65.6261C417.838 -67.6824 429.628 -68.0937 429.628 -66.1745C429.628 -60.554 415.644 -28.613 407.83 -16.1381C404.952 -11.6143 400.976 -5.0342 398.92 -1.33289C394.67 6.20683 368.213 41.9863 364.786 44.728C362.045 46.7843 361.633 53.0902 364.101 55.5577ZM293.227 4.42473C298.574 10.0453 301.316 8.81148 300.356 11.8274C300.082 12.5128 295.694 23.6168 293.364 21.8347C290.211 19.3671 270.334 3.46513 267.181 1.68301C264.439 0.175079 265.536 -0.510345 275.132 -12.5739C279.244 -8.87258 289.8 0.860504 293.227 4.42473ZM282.808 -22.307L295.283 -37.7977C334.627 -86.3261 382.743 -112.098 408.927 -98.5267C417.7 -94.0029 426.2 -84.1327 428.804 -75.2221C429.627 -72.6175 428.942 -72.4804 416.193 -72.4804C387.954 -72.4804 340.247 -40.9507 311.459 -3.25208L307.758 1.54593C293.09 -13.5335 292.541 -14.0819 282.808 -22.307ZM400.154 27.5922L407.83 28.4148L401.936 39.5187C394.259 54.0498 390.695 51.5822 377.809 48.7034C392.889 27.8664 393.985 27.5922 400.154 27.5922ZM252.649 -18.3315C259.229 -26.6938 268.004 -22.1699 262.657 -13.3964C259.504 -8.32425 254.568 -9.0097 252.649 -9.55804C249.222 -10.5176 247.714 -12.1627 252.649 -18.3315ZM253.334 3.7393C256.35 5.38434 262.245 8.81148 266.632 12.5128C278.97 23.2055 277.599 23.0684 274.721 26.9068L273.212 28.9631C272.663 29.6485 271.568 29.9227 270.882 29.3744C265.536 25.3989 246.07 11.142 245.522 10.7307C244.562 9.634 248.536 1.13467 253.334 3.7393ZM220.708 30.0598C221.257 28.826 224.546 26.0843 227.974 26.2214L241.546 31.979C242.642 32.3903 243.876 32.1161 244.698 31.2936C246.48 29.2373 247.852 27.4551 248.674 26.0843C250.731 22.1088 272.115 37.3253 272.115 42.8088C272.115 44.5909 271.156 46.7843 270.059 47.6068C266.495 50.6227 270.334 52.679 277.188 59.5333C280.889 63.2346 280.889 68.718 280.341 69.5405C279.792 70.363 275.954 69.5405 273.35 66.7988C264.302 57.477 248.537 44.4538 224.821 34.3094C221.668 32.9386 220.434 30.8823 220.708 30.0598ZM108.298 88.7325C117.62 78.4511 159.568 30.3339 169.986 24.7134C180.405 19.23 194.25 19.6413 201.927 19.6413C213.442 19.7784 213.306 27.181 203.847 27.5922C193.703 27.8664 186.849 26.9068 175.333 33.7611C166.286 39.1075 127.216 85.5795 115.29 96.1352C111.726 99.014 105.008 92.2968 108.298 88.7325ZM216.185 198.675C215.499 208.683 214.95 210.739 212.894 211.424C211.523 211.836 206.588 214.714 201.927 217.867C145.174 255.84 87.735 172.629 114.467 118.754C126.53 94.4901 149.972 74.7498 161.487 59.122C175.47 40.3412 186.711 33.0757 202.476 34.9949C212.895 36.2286 229.619 43.6313 248.125 57.2028C277.051 78.314 280.067 82.7008 267.455 94.9014C259.504 102.578 252.101 110.529 246.344 116.698C244.287 118.891 244.15 122.044 245.795 124.512L250.045 130.544L245.522 135.342C229.071 152.615 217.556 177.564 216.185 198.675ZM373.285 239.801C291.856 316.021 192.606 241.035 241.135 160.428C248.4 148.365 254.158 140.414 256.899 136.85C257.859 135.479 259.641 135.068 261.149 135.616C262.382 136.027 263.753 136.576 264.85 136.85C270.196 138.769 270.608 137.535 261.012 150.421C232.772 188.531 243.602 228.149 279.519 244.051C309.266 257.074 337.505 255.977 364.374 231.028C372.873 223.077 374.93 219.375 380.002 222.94C384.8 226.23 376.3 236.922 373.285 239.801ZM313.241 115.053C314.338 118.069 312.83 119.303 310.499 120.536C302.686 124.649 283.631 143.018 279.93 148.091C262.108 172.629 260.326 169.887 271.704 146.857C280.341 128.899 310.225 106.554 313.241 115.053ZM314.475 96.9577C323.797 89.1438 337.505 85.1683 345.182 88.1842C346.416 88.5955 348.473 89.6921 348.473 90.9259C348.473 93.9418 353.682 98.3286 358.617 101.893C360.948 103.538 359.165 105.183 357.52 104.634C339.15 98.3286 328.869 97.3689 316.943 101.07C306.113 104.36 305.976 104.086 314.475 96.9577ZM370.681 201.143C353.134 240.898 302.549 255.703 276.366 228.834C267.318 219.512 263.617 203.61 266.084 193.74C274.447 160.703 334.078 103.538 356.012 115.053C402.896 139.454 378.083 184.281 370.681 201.143ZM378.495 118.343C372.6 113.271 371.777 109.57 389.049 117.658C398.645 122.181 403.718 129.036 404.814 128.625C412.08 125.883 418.387 135.753 418.661 147.131C418.935 158.098 413.314 170.436 404.952 181.54C395.63 194.014 391.655 192.507 397.001 181.677C406.872 161.388 399.058 135.616 378.495 118.343ZM438.813 142.059C439.635 151.244 438.538 172.492 424.419 193.192C418.387 201.828 410.436 213.892 407.283 218.553C403.719 223.762 400.291 225.133 396.178 223.899C392.066 222.665 379.317 215.126 384.115 209.505C387.816 205.118 395.629 207.312 399.331 208.683C400.427 209.094 401.525 208.683 402.21 207.723C418.524 180.58 444.159 157.001 417.564 123.964C415.234 121.085 413.314 118.206 413.314 117.521C413.314 115.19 407.557 114.642 405.363 116.698C403.307 118.617 401.799 118.069 388.638 109.981C380.687 105.046 371.365 99.5623 367.801 97.6431C363.14 95.1756 361.221 93.3934 361.221 91.2001C361.221 87.6358 356.149 81.8782 352.996 81.8782C351.762 81.8782 348.199 80.9186 345.32 79.6849C338.191 76.669 322.289 76.3948 314.475 82.9749C304.879 90.9259 281.711 112.174 272.526 119.988C271.978 120.399 271.842 121.222 272.253 121.907C276.503 128.076 271.568 131.366 264.714 126.979L261.56 124.101C259.366 122.044 259.366 118.48 261.56 116.424C272.115 106.691 299.258 81.7411 311.185 70.9114C314.338 68.0326 318.451 66.7988 322.701 67.3471C334.49 68.8551 356.287 72.2822 362.045 73.2419C367.391 74.0644 368.213 73.7902 373.422 68.4438C375.067 66.7988 376.301 65.1538 377.124 64.0571C377.809 63.0975 379.042 62.6862 380.139 62.8233C380.139 62.8233 391.381 63.6458 395.356 65.2908C398.372 66.5246 412.491 77.7657 418.797 83.2491C420.442 84.757 420.58 87.3617 418.935 88.8696L408.241 98.8769C407.145 101.756 409.476 103.812 413.863 103.812C419.346 103.812 437.99 132.326 438.813 142.059ZM446.625 74.8869C437.715 85.7166 439.086 85.5795 428.119 75.5723C420.853 68.9922 413.04 63.5087 407.694 59.6703C410.573 55.8319 413.725 51.9935 417.837 43.7684C422.361 34.7207 421.676 34.5836 435.248 46.6472C448.545 58.4365 451.287 61.5895 454.578 65.1537L446.625 74.8869ZM462.528 54.324C457.73 49.6631 453.48 45.0021 440.046 35.6803C426.063 25.9472 426.2 28.0035 437.304 9.63399C460.334 -28.4759 468.834 -56.4414 464.174 -77.2784L462.803 -83.4473C480.761 -64.8036 492.962 -52.8772 494.332 -47.1196C500.227 -21.2103 488.849 2.64261 462.528 54.324Z" fill="#161212"/>
<path d="M202.476 78.1758C206.863 75.9824 218.377 81.1917 218.377 83.6592C218.377 91.4731 245.109 102.029 250.867 97.5049C260.874 89.691 210.563 64.7413 194.387 69.5393C171.357 76.3936 140.239 132.873 146.956 155.63C153.125 176.604 190.824 187.845 214.403 175.781C224.821 170.435 217.418 165.911 204.121 169.475C178.76 176.33 160.39 162.621 162.721 138.631C164.092 124.1 190.138 84.4817 202.476 78.1758Z" fill="#161212"/>
</svg>
