<svg width="436" height="436" viewBox="0 0 436 436" fill="none" xmlns="http://www.w3.org/2000/svg">
<path fill-rule="evenodd" clip-rule="evenodd" d="M248.836 189.476C279.545 173.231 310.766 201.613 315.829 233.71C317.098 241.758 316.383 249.448 315.58 257.758C314.775 266.08 309.632 284.901 298.796 283.531C289.416 282.346 281.199 269.657 276.382 262.244C271.108 254.133 265.8 244.958 261.279 236.374C254.518 223.531 248.739 207.412 246.675 192.813" fill="white"/>
<path d="M248.836 189.476C279.545 173.231 310.766 201.613 315.829 233.71C317.098 241.758 316.383 249.448 315.58 257.758C314.775 266.08 309.632 284.901 298.796 283.531C289.416 282.346 281.199 269.657 276.382 262.244C271.108 254.133 265.8 244.958 261.279 236.374C254.518 223.531 248.739 207.412 246.675 192.813" stroke="#161212" stroke-width="10.2016" stroke-miterlimit="1.5" stroke-linecap="round" stroke-linejoin="round"/>
<path d="M62.4824 277.77C47.5276 262.954 30.7086 239.163 26.4382 217.593C14.199 155.786 67.0838 119.874 112.452 114.727C152.915 110.136 189.795 120.839 215.404 154.64C224.078 166.089 229.279 179.316 236.432 191.689" stroke="#161212" stroke-width="10.2016" stroke-miterlimit="1.5" stroke-linecap="round" stroke-linejoin="round"/>
<path fill-rule="evenodd" clip-rule="evenodd" d="M219.168 188.251C185.254 193.937 173.148 231.336 177.601 263.189C183.736 307.054 219.965 341.033 264.62 328.844C281.064 324.357 292.307 303.505 294.938 287.491C300.541 253.382 291.8 220.978 264.942 199.648C254.719 191.529 236.431 179.765 222.395 184.674" fill="white"/>
<path d="M219.168 188.251C185.254 193.937 173.148 231.336 177.601 263.189C183.736 307.054 219.965 341.033 264.62 328.844C281.064 324.357 292.307 303.505 294.938 287.491C300.541 253.382 291.8 220.978 264.942 199.648C254.719 191.529 236.431 179.765 222.395 184.674" stroke="#161212" stroke-width="10.2016" stroke-miterlimit="1.5" stroke-linecap="round" stroke-linejoin="round"/>
<path d="M223.106 229.771C212.824 229.414 209.814 245.583 210.608 253.326C212.37 270.497 224.038 290.658 242.415 291.193C253.863 291.527 256.777 277.984 256.065 268.693C255.198 257.406 248.666 249.008 241.182 241.421C235.906 236.07 232.251 231.013 224.215 230.922" stroke="#161212" stroke-width="10.2016" stroke-miterlimit="1.5" stroke-linecap="round" stroke-linejoin="round"/>
<path fill-rule="evenodd" clip-rule="evenodd" d="M130.811 234.154C124.619 234.097 118.292 235.141 111.942 237.523C92.7193 244.736 69.7364 268.671 64.7321 294.326C54.553 346.504 85.7535 412.818 146.528 399.745C203.142 387.565 221.836 317.943 190.431 271.164C179.433 254.783 162.242 240.187 142.804 235.624" fill="white"/>
<path d="M130.811 234.154C124.619 234.097 118.291 235.141 111.942 237.523C92.7193 244.736 69.7364 268.671 64.7321 294.326C54.553 346.504 85.7535 412.818 146.528 399.745C203.142 387.565 221.836 317.943 190.431 271.164C179.433 254.783 162.242 240.187 142.804 235.624" stroke="#161212" stroke-width="10.2016" stroke-miterlimit="1.5" stroke-linecap="round" stroke-linejoin="round"/>
<path fill-rule="evenodd" clip-rule="evenodd" d="M115.735 265.161C98.289 260.908 73.1045 261.186 57.1355 288.603C44.093 310.997 49.8652 352.585 68.2253 371.955C72.5147 376.482 82.061 382.556 88.0669 384.715C130.348 399.908 168.468 373.326 169.699 330.476C169.85 325.259 177.82 291.039 134.347 272.325" fill="white"/>
<path d="M115.735 265.161C98.289 260.908 73.1045 261.186 57.1355 288.603C44.093 310.997 49.8652 352.585 68.2253 371.955C72.5147 376.482 82.061 382.556 88.0669 384.715C130.348 399.908 168.468 373.326 169.699 330.476C169.85 325.259 177.82 291.039 134.347 272.325" stroke="#161212" stroke-width="10.2016" stroke-miterlimit="1.5" stroke-linecap="round" stroke-linejoin="round"/>
<path d="M102.102 287.85C113.602 288.279 121.766 296.921 127.3 306.549C139.081 327.041 139.874 362.092 113.15 370.923" stroke="#161212" stroke-width="10.2016" stroke-miterlimit="1.5" stroke-linecap="round" stroke-linejoin="round"/>
<path fill-rule="evenodd" clip-rule="evenodd" d="M46.6379 168.413C57.7605 153.435 75.6391 145.594 93.7781 144.966C103.42 144.633 120.644 141.297 134.982 139.006C151.915 136.299 165.472 133.761 167.104 120.789C169.103 104.889 152.656 103.274 140.76 102.187C116.071 99.9285 92.0654 107.43 70.8457 119.859C54.3727 129.506 45.9822 150.871 45.1436 170.177" fill="white"/>
<path d="M46.6379 168.413C57.7605 153.435 75.6391 145.594 93.7781 144.966C103.42 144.633 120.644 141.297 134.982 139.006C151.915 136.299 165.472 133.761 167.104 120.789C169.103 104.889 152.656 103.274 140.76 102.187C116.071 99.9285 92.0654 107.43 70.8457 119.859C54.3727 129.506 45.9822 150.871 45.1436 170.177" stroke="#161212" stroke-width="10.2016" stroke-miterlimit="1.5" stroke-linecap="round" stroke-linejoin="round"/>
<path fill-rule="evenodd" clip-rule="evenodd" d="M107.028 104.952C84.5906 109.757 62.4755 122.804 54.959 128.713C13.7297 161.124 1.05339 198.667 10.7399 227.378C16.5728 244.665 43.6594 238.45 49.1487 224.329C52.7422 215.086 48.9908 200.6 51.4399 186.366C59.9113 137.124 87.3832 122.492 107.028 104.952Z" fill="white" stroke="#161212" stroke-width="10.2016" stroke-miterlimit="1.5" stroke-linecap="round" stroke-linejoin="round"/>
<path d="M291.778 118.658C303.808 123.838 297.203 140.388 285.187 136.295C274.061 132.505 280.031 115.908 291.616 119.254" stroke="#161212" stroke-width="10.2016" stroke-miterlimit="1.5" stroke-linecap="round" stroke-linejoin="round"/>
<path d="M298.159 127.037C297.7 110.193 299.828 93.3101 300.314 76.4947C312.983 74.8199 326.708 71.5506 339.106 68.4725" stroke="#161212" stroke-width="10.2016" stroke-miterlimit="1.5" stroke-linecap="round" stroke-linejoin="round"/>
<path d="M340.586 84.4854C328.076 86.9938 311.478 92.5094 299.243 96.2317" stroke="#161212" stroke-width="10.2016" stroke-miterlimit="1.5" stroke-linecap="round" stroke-linejoin="round"/>
<path d="M336.937 111.884C331.251 102.702 318.086 113.531 323.684 121.665C329.755 130.49 337.151 121.821 339.117 115.357C343.35 101.452 340.325 82.6245 339.134 68.4541" stroke="#161212" stroke-width="10.2016" stroke-miterlimit="1.5" stroke-linecap="round" stroke-linejoin="round"/>
<path d="M326.82 200.217C332.623 188.537 338.495 176.885 344.507 165.327C347.188 174.516 351.584 183.322 355.062 192.244C372.807 167.712 392.321 143.006 408.269 117.21" stroke="#161212" stroke-width="10.2016" stroke-miterlimit="1.5" stroke-linecap="round" stroke-linejoin="round"/>
<path d="M234.649 142.444C232.357 126.514 231.017 110.046 230.568 93.9458C237.119 99.8279 243.654 105.734 250.853 110.841C249.742 85.9164 244.88 59.3564 246.765 34.5168" stroke="#161212" stroke-width="10.2016" stroke-miterlimit="1.5" stroke-linecap="round" stroke-linejoin="round"/>
<path d="M363.789 257.081C359.443 256.556 354.292 256.087 350.773 259.227C344.564 264.767 343.126 278.351 351.667 282.513C362.518 287.802 368.733 281.104 370.779 269.968C374.315 250.737 374.429 229.652 376.037 210.077C392.77 210.45 396.217 226.861 407.575 236.114C414.297 241.591 423.173 240.07 427.846 232.864" stroke="#161212" stroke-width="10.2016" stroke-miterlimit="1.5" stroke-linecap="round" stroke-linejoin="round"/>
</svg>
