<svg width="140" height="62" viewBox="0 0 140 62" fill="none" xmlns="http://www.w3.org/2000/svg">
<path d="M1.58408 37.0192C1.29306 37.0192 1.06097 37.2441 1.02413 37.5686L0 45.3522L1.02413 52.9995C1.02781 53.3203 1.29306 53.5452 1.58408 53.5452C1.86775 53.5452 2.09615 53.3239 2.14404 52.9995L3.35605 45.3485L2.14404 37.5649C2.09983 37.2441 1.86775 37.0192 1.58408 37.0192ZM7.34205 32.7678C7.29416 32.4323 7.05471 32.2037 6.75999 32.2037C6.46528 32.2037 6.21846 32.4434 6.17793 32.7678C6.17793 32.7682 4.80015 45.3522 4.80015 45.3522L6.17793 57.6564C6.21846 57.9883 6.4616 58.2242 6.75999 58.2242C7.05471 58.2242 7.29416 57.9919 7.34205 57.6601L8.90772 45.3522L7.34205 32.7678ZM29.0256 21.1606C28.462 21.1606 27.9941 21.6215 27.9683 22.2114L26.8705 45.3633L27.9683 60.3259C27.9978 60.9122 28.462 61.3731 29.0256 61.3731C29.5856 61.3731 30.0534 60.9122 30.0866 60.3259V60.3263L31.3244 45.3637L30.0866 22.2118C30.0534 21.6255 29.5892 21.1609 29.0256 21.1609V21.1606ZM17.8007 29.2064C17.366 29.2064 17.0123 29.553 16.9792 30.0139L15.7451 45.3526L16.9792 60.1751C17.0123 60.636 17.366 60.9826 17.8007 60.9826C18.228 60.9826 18.5854 60.636 18.6222 60.1751L20.0258 45.3526L18.6222 30.0102C18.6185 29.5493 18.2317 29.2027 17.8007 29.2027V29.2064ZM40.431 61.3624C41.131 61.3624 41.702 60.7983 41.7278 60.0756L42.8035 45.3674L41.7314 14.5461C41.702 13.8234 41.1346 13.2593 40.4347 13.2593C39.7274 13.2593 39.1564 13.8271 39.1343 14.5498L38.1801 45.3674L39.1343 60.0829C39.1564 60.8019 39.7274 61.3661 40.431 61.3661V61.3624ZM63.7797 61.4325C64.7449 61.4325 65.5369 60.6397 65.5554 59.6626V59.6737V59.6626L66.3069 45.3747L65.5554 9.77855C65.5369 8.80513 64.7412 8.0087 63.7797 8.0087C62.8145 8.0087 62.0188 8.80144 62.0041 9.78224L61.3336 45.3674C61.3336 45.3895 62.0041 59.6773 62.0041 59.6773C62.0188 60.6434 62.8182 61.4398 63.7797 61.4398V61.4325ZM52.017 61.3845C52.8569 61.3845 53.531 60.7098 53.5531 59.8507V59.8617L54.4668 45.3747L53.5531 14.3285C53.531 13.4694 52.8532 12.7984 52.017 12.7984C51.1733 12.7984 50.4955 13.4694 50.4771 14.3285L49.6666 45.3747L50.4808 59.858C50.4992 60.7061 51.1733 61.3808 52.0206 61.3808L52.017 61.3845ZM23.3966 61.2444C23.8939 61.2444 24.2991 60.8462 24.336 60.3189L25.6585 45.3563L24.336 31.12C24.3323 30.5928 23.8976 30.1982 23.3966 30.1982C22.8919 30.1982 22.4866 30.5964 22.4572 31.1274L21.2931 45.3563L22.4572 60.3189C22.4903 60.8462 22.8919 61.2444 23.3966 61.2444ZM12.2711 60.4259C12.6358 60.4259 12.9306 60.1383 12.9711 59.74L14.4557 45.3526L12.9711 30.4232C12.9269 30.0249 12.6322 29.7373 12.2675 29.7373C11.8991 29.7373 11.6043 30.0249 11.5675 30.4232L10.2597 45.3526L11.5675 59.7364C11.5712 60.1346 11.8991 60.4259 12.2675 60.4259H12.2711ZM57.8854 13.8087C56.9755 13.8087 56.2461 14.535 56.2277 15.4605L55.4872 45.371L56.2277 59.7659C56.2461 60.6803 56.9755 61.4067 57.8854 61.4067C58.7954 61.4067 59.5211 60.684 59.5432 59.7548V59.7659L60.3758 45.371L59.5432 15.4531C59.5211 14.5277 58.7954 13.805 57.8854 13.805V13.8087ZM34.7173 61.3919C35.3472 61.3919 35.8666 60.8794 35.8961 60.2231L37.0529 45.3637L35.8961 16.917C35.863 16.2606 35.3472 15.7481 34.7173 15.7481C34.0836 15.7481 33.5642 16.2606 33.5384 16.917L32.5143 45.3637L33.5384 60.2231C33.5642 60.872 34.0836 61.3845 34.7173 61.3845V61.3919ZM47.6294 59.9834V59.976L48.6241 45.36L47.6294 13.4989C47.6073 12.7062 46.981 12.0867 46.2111 12.0867C45.4375 12.0867 44.8149 12.7062 44.7928 13.4989L43.9123 45.3563L44.7965 59.9797C44.8186 60.7651 45.4412 61.3808 46.2148 61.3808C46.9847 61.3808 47.6073 60.7614 47.6331 59.9723L47.6294 59.9834ZM122.781 26.9941C120.424 26.9941 118.173 27.4734 116.121 28.3325C114.75 12.7984 101.739 0.615875 85.8648 0.615875C81.982 0.615875 78.1949 1.38281 74.8499 2.67701C73.5495 3.17847 73.2032 3.69837 73.1921 4.70497V59.4045C73.2069 60.459 74.0247 61.3366 75.0525 61.4435C75.0967 61.4439 122.476 61.473 122.781 61.473C132.29 61.473 140 53.7557 140 44.2391C140 34.7187 132.293 27.0014 122.781 27.0014V26.9941ZM69.6703 4.65704C68.6351 4.65704 67.7878 5.50509 67.7731 6.55226L66.9958 45.3747L67.7731 59.4635C67.7878 60.4922 68.6351 61.3403 69.6703 61.3403C70.7018 61.3403 71.5491 60.4922 71.5675 59.4488V59.4672L72.4111 45.3747L71.5675 6.54857C71.5528 5.50878 70.7018 4.65704 69.6703 4.65704Z" fill="#161212"/>
</svg>
