<svg width="100" height="101" viewBox="0 0 100 101" fill="none" xmlns="http://www.w3.org/2000/svg">
<path d="M79.5769 44.3705C63.4598 34.799 36.8745 33.9189 21.4888 38.5891C19.0182 39.3385 16.4055 37.9437 15.6567 35.4731C14.908 33.0012 16.3016 30.3903 18.774 29.6391C36.4357 24.2775 65.7961 25.3134 84.3504 36.3275C86.5727 37.6464 87.3017 40.5165 85.9846 42.7352C84.6663 44.9574 81.7938 45.69 79.5769 44.3705ZM79.0491 58.5472C77.9183 60.382 75.5193 60.9576 73.6869 59.8309C60.25 51.5717 39.7607 49.1793 23.8639 54.0042C21.8023 54.6275 19.6248 53.465 18.9991 51.4075C18.3775 49.3459 19.5406 47.1725 21.5981 46.5456C39.7583 41.0353 62.3338 43.7042 77.7666 53.188C79.599 54.3164 80.1758 56.7172 79.0491 58.5472ZM72.931 72.1621C72.0325 73.6357 70.1141 74.0972 68.6459 73.1992C56.9041 66.0231 42.1257 64.4026 24.7213 68.3779C23.0442 68.7624 21.373 67.7116 20.9903 66.0344C20.6064 64.3579 21.653 62.6861 23.3343 62.3034C42.38 57.9496 58.718 59.8232 71.8969 67.8764C73.3663 68.7738 73.829 70.6933 72.931 72.1621ZM50.0003 0.0444336C22.3862 0.0444336 0 22.4302 0 50.0438C0 77.6605 22.3862 100.044 50.0003 100.044C77.615 100.044 100 77.6605 100 50.0438C100 22.4302 77.615 0.0444336 50.0003 0.0444336Z" fill="#161212"/>
</svg>
