<svg width="100" height="101" viewBox="0 0 100 101" fill="none" xmlns="http://www.w3.org/2000/svg">
<path d="M50.0001 94.489C74.5467 94.489 94.4454 74.5911 94.4454 50.0445C94.4454 25.498 74.5467 5.6001 50.0001 5.6001C25.4536 5.6001 5.55566 25.498 5.55566 50.0445C5.55566 74.5911 25.4536 94.489 50.0001 94.489Z" fill="#161212"/>
<path d="M50.0002 23.0529C35.0945 23.0529 23.0085 35.1388 23.0085 50.0445C23.0085 64.9503 35.0945 77.0362 50.0002 77.0362C64.906 77.0362 76.9919 64.9503 76.9919 50.0445C76.9919 35.1388 64.906 23.0529 50.0002 23.0529ZM50.0002 26.6397C62.9062 26.6397 73.405 37.1385 73.405 50.0445C73.405 62.9506 62.9062 73.4493 50.0002 73.4493C37.0942 73.4493 26.5954 62.9506 26.5954 50.0445C26.5954 37.1385 37.0942 26.6397 50.0002 26.6397Z" fill="white"/>
<path d="M41.4135 63.1763L64.1405 50.0446L41.4135 36.913V63.1763Z" fill="white"/>
</svg>
