<svg width="290" height="263" viewBox="0 0 290 263" fill="none" xmlns="http://www.w3.org/2000/svg">
<path fill-rule="evenodd" clip-rule="evenodd" d="M264.143 15.3442C260.766 12.5587 256.947 10.5449 252.834 9.11681C236.209 3.34517 214.785 7.14432 198.442 8.26556C173.529 9.97641 148.528 9.58766 123.623 10.8248C108.67 11.5686 93.0155 10.9667 78.2174 13.0748C61.239 15.4926 43.571 9.75355 27.9499 17.5217C5.20131 28.8359 6.12023 46.4954 6.00995 70.1461C5.86148 101.713 7.4239 133.238 7.45218 164.813C7.4649 179.74 7.9018 200.808 10.1033 215.64C13.1574 236.206 31.6185 258.165 56.1628 257.474C101.677 258.239 151.264 255.87 195.333 254.177C214.436 253.445 238.221 253.179 256.843 247.621C288.038 238.31 285.145 189.567 284.097 164.423C283.832 158.056 280.304 66.1196 276.071 41.0281C275.191 35.8178 274.726 29.5315 272.042 24.826" fill="white"/>
<path d="M264.143 15.3442C260.766 12.5587 256.947 10.5449 252.834 9.11681C236.209 3.34517 214.785 7.14432 198.442 8.26556C173.529 9.97641 148.528 9.58766 123.623 10.8248C108.67 11.5686 93.0155 10.9667 78.2174 13.0748C61.239 15.4926 43.571 9.75355 27.9499 17.5217C5.20131 28.8359 6.12023 46.4954 6.00995 70.1461C5.86148 101.713 7.4239 133.238 7.45218 164.813C7.4649 179.74 7.9018 200.808 10.1033 215.64C13.1574 236.206 31.6185 258.165 56.1628 257.474C101.677 258.239 151.264 255.87 195.333 254.177C214.436 253.445 238.221 253.179 256.843 247.621C288.038 238.31 285.145 189.567 284.097 164.423C283.832 158.056 280.304 66.1196 276.071 41.0281C275.191 35.8178 274.726 29.5315 272.042 24.826" stroke="#161212" stroke-width="10.2016" stroke-miterlimit="1.5" stroke-linecap="round" stroke-linejoin="round"/>
<path d="M236.106 33.9553C224.945 32.038 210.583 34.0188 202.681 33.7813C180.067 33.1026 157.311 35.0261 134.711 35.586C115.019 36.0738 93.8714 35.046 74.4088 37.4963C58.0426 39.5578 33.7273 35.727 33.7301 56.1045C33.7344 81.1238 34.489 106.125 34.3349 131.143C34.2359 147.095 30.9973 164.175 33.425 179.975C34.7173 188.38 38.6235 195.819 47.4972 197.654C55.9709 199.406 65.6582 198.976 74.0767 198.254C84.5129 197.359 95.1663 197.182 105.617 196.783C132.043 195.773 228.268 192.167 242.133 189.685C255.691 186.331 258.048 165.355 257.542 155.177C255.965 123.529 255.48 88.6546 251.729 47.2902" stroke="#161212" stroke-width="10.2016" stroke-miterlimit="1.5" stroke-linecap="round" stroke-linejoin="round"/>
<path d="M86.2566 61.4405C75.1686 57.5423 67.0878 69.2781 65.7361 78.8985C64.4805 87.8302 71.5474 96.773 79.8698 99.4411C84.0465 100.78 90.0811 101.753 94.3356 100.252C112.876 93.7066 112.084 68.0092 93.8596 62.6928" stroke="#161212" stroke-width="10.2016" stroke-miterlimit="1.5" stroke-linecap="round" stroke-linejoin="round"/>
<path d="M47.4053 193.854C49.9532 185.246 55.3699 176.476 60.8672 169.431C67.2667 161.234 73.8726 152.913 83.3388 148.104C119.825 129.57 155.894 159.632 171.89 190.901" stroke="#161212" stroke-width="10.2016" stroke-miterlimit="1.5" stroke-linecap="round" stroke-linejoin="round"/>
<path d="M130.303 147.237C129.375 136.494 138.357 125.291 143.785 116.743C151.276 104.943 162.17 92.0525 175.523 86.4972C204.88 74.2823 239.362 90.3861 254.553 116.559" stroke="#161212" stroke-width="10.2016" stroke-miterlimit="1.5" stroke-linecap="round" stroke-linejoin="round"/>
</svg>
