<svg width="100" height="66" viewBox="0 0 100 66" fill="none" xmlns="http://www.w3.org/2000/svg">
<path fill-rule="evenodd" clip-rule="evenodd" d="M89.1265 2.2657C93.4098 3.3432 96.7871 6.49875 97.9403 10.5009C100.082 17.8125 99.9996 33.0515 99.9996 33.0515C99.9996 33.0515 99.9996 48.2135 97.9403 55.5252C96.7871 59.5273 93.4098 62.6829 89.1265 63.7604C81.3011 65.6845 49.9998 65.6845 49.9998 65.6845C49.9998 65.6845 18.7808 65.6845 10.8731 63.6834C6.58976 62.6059 3.21251 59.4504 2.0593 55.4482C0 48.2135 0 32.9746 0 32.9746C0 32.9746 0 17.8125 2.0593 10.5009C3.21251 6.49875 6.67213 3.26624 10.8731 2.18873C18.6984 0.264618 49.9998 0.264618 49.9998 0.264618C49.9998 0.264618 81.3011 0.264618 89.1265 2.2657ZM66.0622 32.4402L40.0327 46.4477V18.4326L66.0622 32.4402Z" fill="#161212"/>
</svg>
