<svg width="729" height="729" viewBox="0 0 729 729" fill="none" xmlns="http://www.w3.org/2000/svg">
<path fill-rule="evenodd" clip-rule="evenodd" d="M416.059 316.807C467.405 289.646 519.607 337.1 528.071 390.767C530.193 404.224 528.998 417.082 527.655 430.976C526.31 444.891 517.71 476.36 499.592 474.069C483.909 472.088 470.17 450.872 462.115 438.477C453.298 424.915 444.421 409.574 436.863 395.222C425.558 373.748 415.896 346.796 412.445 322.387" fill="white"/>
<path d="M416.059 316.807C467.405 289.646 519.607 337.1 528.071 390.767C530.193 404.224 528.998 417.082 527.655 430.976C526.31 444.891 517.71 476.36 499.592 474.069C483.909 472.088 470.17 450.872 462.115 438.477C453.298 424.915 444.421 409.574 436.863 395.222C425.558 373.748 415.896 346.796 412.445 322.387" stroke="#161212" stroke-width="10.2016" stroke-miterlimit="1.5" stroke-linecap="round" stroke-linejoin="round"/>
<path d="M104.472 464.437C79.4669 439.664 51.3453 399.885 44.205 363.82C23.7408 260.477 112.165 200.432 188.022 191.826C255.676 184.149 317.341 202.045 360.16 258.561C374.662 277.703 383.359 299.819 395.318 320.507" stroke="#161212" stroke-width="10.2016" stroke-miterlimit="1.5" stroke-linecap="round" stroke-linejoin="round"/>
<path fill-rule="evenodd" clip-rule="evenodd" d="M366.453 314.761C309.749 324.266 289.506 386.799 296.953 440.057C307.21 513.401 367.786 570.214 442.449 549.835C469.944 542.331 488.744 507.466 493.143 480.692C502.511 423.66 487.895 369.479 442.987 333.816C425.896 320.241 395.318 300.571 371.848 308.78" fill="white"/>
<path d="M366.453 314.761C309.749 324.266 289.506 386.799 296.953 440.057C307.21 513.401 367.786 570.214 442.449 549.835C469.944 542.331 488.744 507.466 493.143 480.692C502.511 423.66 487.895 369.479 442.987 333.816C425.896 320.241 395.318 300.571 371.848 308.78" stroke="#161212" stroke-width="10.2016" stroke-miterlimit="1.5" stroke-linecap="round" stroke-linejoin="round"/>
<path d="M373.038 384.183C355.845 383.585 350.813 410.619 352.141 423.567C355.087 452.276 374.596 485.986 405.322 486.882C424.464 487.439 429.337 464.795 428.146 449.26C426.697 430.389 415.774 416.347 403.261 403.661C394.44 394.715 388.328 386.259 374.892 386.107" stroke="#161212" stroke-width="10.2016" stroke-miterlimit="1.5" stroke-linecap="round" stroke-linejoin="round"/>
<path fill-rule="evenodd" clip-rule="evenodd" d="M218.718 391.508C208.366 391.413 197.785 393.16 187.169 397.143C155.028 409.202 116.6 449.222 108.233 492.118C91.2132 579.36 143.381 690.239 244.997 668.381C339.658 648.016 370.913 531.607 318.403 453.391C300.015 426.002 271.271 401.597 238.771 393.966" fill="white"/>
<path d="M218.718 391.508C208.366 391.413 197.785 393.16 187.169 397.143C155.028 409.202 116.6 449.222 108.233 492.118C91.2132 579.36 143.381 690.239 244.997 668.381C339.658 648.016 370.913 531.607 318.403 453.391C300.015 426.002 271.271 401.597 238.771 393.966" stroke="#161212" stroke-width="10.2016" stroke-miterlimit="1.5" stroke-linecap="round" stroke-linejoin="round"/>
<path fill-rule="evenodd" clip-rule="evenodd" d="M193.51 443.354C164.341 436.243 122.232 436.708 95.5316 482.55C73.7243 519.992 83.3757 589.528 114.074 621.916C121.246 629.485 137.208 639.641 147.25 643.25C217.945 668.654 281.681 624.207 283.74 552.562C283.992 543.84 297.318 486.622 224.631 455.332" fill="white"/>
<path d="M193.51 443.354C164.341 436.243 122.232 436.708 95.5316 482.55C73.7243 519.992 83.3757 589.528 114.074 621.916C121.246 629.485 137.208 639.641 147.25 643.25C217.945 668.654 281.681 624.207 283.74 552.562C283.992 543.84 297.318 486.622 224.631 455.332" stroke="#161212" stroke-width="10.2016" stroke-miterlimit="1.5" stroke-linecap="round" stroke-linejoin="round"/>
<path d="M170.717 481.289C189.946 482.007 203.595 496.456 212.849 512.555C232.546 546.819 233.872 605.424 189.188 620.189" stroke="#161212" stroke-width="10.2016" stroke-miterlimit="1.5" stroke-linecap="round" stroke-linejoin="round"/>
<path fill-rule="evenodd" clip-rule="evenodd" d="M77.9795 281.588C96.5768 256.546 126.47 243.435 156.799 242.386C172.921 241.828 201.719 236.251 225.693 232.42C254.005 227.894 276.672 223.651 279.401 201.962C282.744 175.375 255.244 172.676 235.353 170.858C194.074 167.082 153.935 179.625 118.455 200.406C90.9122 216.536 76.8832 252.259 75.481 284.539" fill="white"/>
<path d="M77.9795 281.588C96.5768 256.546 126.47 243.435 156.799 242.386C172.921 241.828 201.719 236.251 225.693 232.42C254.005 227.894 276.672 223.651 279.401 201.962C282.744 175.375 255.244 172.676 235.353 170.858C194.074 167.082 153.935 179.625 118.455 200.406C90.9122 216.536 76.8832 252.259 75.481 284.539" stroke="#161212" stroke-width="10.2016" stroke-miterlimit="1.5" stroke-linecap="round" stroke-linejoin="round"/>
<path fill-rule="evenodd" clip-rule="evenodd" d="M178.953 175.481C141.437 183.515 104.461 205.331 91.8927 215.21C22.9565 269.401 1.76155 332.175 17.9576 380.18C27.7103 409.083 72.9995 398.693 82.1778 375.082C88.1861 359.627 81.9137 335.406 86.0087 311.607C100.173 229.273 146.107 204.809 178.953 175.481Z" fill="white" stroke="#161212" stroke-width="10.2016" stroke-miterlimit="1.5" stroke-linecap="round" stroke-linejoin="round"/>
<path d="M487.858 198.398C507.972 207.059 496.929 234.732 476.838 227.887C458.235 221.551 468.217 193.8 487.588 199.394" stroke="#161212" stroke-width="10.2016" stroke-miterlimit="1.5" stroke-linecap="round" stroke-linejoin="round"/>
<path d="M498.528 212.407C497.759 184.245 501.318 156.016 502.131 127.901C523.313 125.1 546.262 119.634 566.992 114.487" stroke="#161212" stroke-width="10.2016" stroke-miterlimit="1.5" stroke-linecap="round" stroke-linejoin="round"/>
<path d="M569.466 141.262C548.549 145.456 520.797 154.678 500.339 160.902" stroke="#161212" stroke-width="10.2016" stroke-miterlimit="1.5" stroke-linecap="round" stroke-linejoin="round"/>
<path d="M563.365 187.071C553.857 171.72 531.845 189.825 541.205 203.426C551.357 218.181 563.722 203.687 567.01 192.879C574.087 169.629 569.029 138.149 567.037 114.456" stroke="#161212" stroke-width="10.2016" stroke-miterlimit="1.5" stroke-linecap="round" stroke-linejoin="round"/>
<path d="M546.449 334.766C556.151 315.238 565.97 295.755 576.023 276.43C580.504 291.794 587.855 306.518 593.669 321.436C623.339 280.417 655.968 239.108 682.633 195.977" stroke="#161212" stroke-width="10.2016" stroke-miterlimit="1.5" stroke-linecap="round" stroke-linejoin="round"/>
<path d="M392.338 238.169C388.505 211.534 386.264 183.999 385.514 157.079C396.466 166.914 407.393 176.789 419.431 185.328C417.573 143.654 409.444 99.2451 412.595 57.7128" stroke="#161212" stroke-width="10.2016" stroke-miterlimit="1.5" stroke-linecap="round" stroke-linejoin="round"/>
<path d="M608.262 429.843C600.995 428.965 592.383 428.181 586.499 433.432C576.117 442.694 573.714 465.408 587.994 472.366C606.137 481.209 616.528 470.01 619.949 451.391C625.862 419.236 626.052 383.982 628.741 351.252C656.719 351.875 662.482 379.315 681.473 394.786C692.712 403.944 707.552 401.401 715.366 389.353" stroke="#161212" stroke-width="10.2016" stroke-miterlimit="1.5" stroke-linecap="round" stroke-linejoin="round"/>
</svg>
