<svg width="667" height="721" viewBox="0 0 667 721" fill="none" xmlns="http://www.w3.org/2000/svg">
<path fill-rule="evenodd" clip-rule="evenodd" d="M506.641 163.677C500.953 158.984 494.519 155.592 487.59 153.186C459.584 143.463 423.492 149.863 395.963 151.752C353.994 154.634 311.878 153.979 269.924 156.063C244.733 157.316 218.363 156.302 193.434 159.854C164.833 163.927 135.07 154.259 108.755 167.345C70.4329 186.404 71.9809 216.153 71.7951 255.995C71.545 309.172 74.177 362.279 74.2246 415.468C74.2461 440.614 74.9821 476.105 78.6906 501.091C83.8355 535.735 114.935 572.728 156.282 571.563C232.954 572.852 316.487 568.861 390.725 566.01C422.906 564.776 462.974 564.328 494.343 554.965C546.894 539.28 542.02 457.168 540.255 414.811C539.808 404.086 533.865 249.212 526.734 206.943C525.253 198.166 524.469 187.576 519.948 179.649" fill="white"/>
<path d="M506.641 163.677C500.953 158.984 494.519 155.592 487.59 153.186C459.584 143.463 423.492 149.863 395.963 151.752C353.994 154.634 311.878 153.979 269.924 156.063C244.733 157.316 218.363 156.302 193.434 159.854C164.833 163.927 135.07 154.259 108.755 167.345C70.4329 186.404 71.9809 216.153 71.7951 255.995C71.545 309.172 74.177 362.279 74.2246 415.468C74.2461 440.614 74.9821 476.105 78.6906 501.091C83.8355 535.735 114.935 572.728 156.282 571.563C232.954 572.852 316.487 568.861 390.725 566.01C422.906 564.776 462.974 564.328 494.343 554.965C546.894 539.28 542.02 457.168 540.255 414.811C539.808 404.086 533.865 249.212 526.734 206.943C525.253 198.166 524.469 187.576 519.948 179.649" stroke="#161212" stroke-width="10.2016" stroke-miterlimit="1.5" stroke-linecap="round" stroke-linejoin="round"/>
<path d="M459.409 195.028C440.607 191.798 416.414 195.135 403.102 194.735C365.006 193.591 326.673 196.832 288.601 197.775C255.429 198.597 219.803 196.865 187.017 200.993C159.447 204.466 118.486 198.012 118.491 232.34C118.498 274.487 119.769 316.604 119.509 358.749C119.343 385.621 113.887 414.393 117.977 441.01C120.154 455.168 126.734 467.7 141.682 470.792C155.957 473.743 172.276 473.018 186.458 471.801C204.038 470.293 221.985 469.996 239.589 469.324C284.106 467.623 446.205 461.547 469.561 457.367C492.401 451.717 496.372 416.38 495.519 399.236C492.863 345.922 492.047 287.173 485.727 217.492" stroke="#161212" stroke-width="10.2016" stroke-miterlimit="1.5" stroke-linecap="round" stroke-linejoin="round"/>
<path d="M206.977 241.328C188.298 234.761 174.685 254.531 172.408 270.737C170.293 285.784 182.198 300.849 196.218 305.343C203.254 307.599 213.419 309.238 220.586 306.708C251.82 295.683 250.484 252.394 219.784 243.438" stroke="#161212" stroke-width="10.2016" stroke-miterlimit="1.5" stroke-linecap="round" stroke-linejoin="round"/>
<path d="M141.528 464.39C145.82 449.889 154.945 435.115 164.205 423.248C174.986 409.438 186.114 395.421 202.061 387.32C263.525 356.099 324.286 406.741 351.232 459.416" stroke="#161212" stroke-width="10.2016" stroke-miterlimit="1.5" stroke-linecap="round" stroke-linejoin="round"/>
<path d="M281.176 385.859C279.614 367.762 294.744 348.89 303.887 334.49C316.507 314.613 334.858 292.897 357.353 283.539C406.807 262.962 464.895 290.09 490.486 334.181" stroke="#161212" stroke-width="10.2016" stroke-miterlimit="1.5" stroke-linecap="round" stroke-linejoin="round"/>
</svg>
