<svg width="200" height="200" viewBox="0 0 200 200" fill="none" xmlns="http://www.w3.org/2000/svg">
<path d="M100.003 27.2727C80.2521 27.2727 77.7734 27.3591 70.0161 27.7121C62.2739 28.0666 56.9892 29.2924 52.3651 31.0909C47.5819 32.9485 43.5245 35.4333 39.4821 39.4773C35.4368 43.5197 32.952 47.5772 31.0885 52.3591C29.2855 56.9848 28.0583 62.2712 27.7098 70.0106C27.3628 77.7682 27.2719 80.2485 27.2719 100C27.2719 119.751 27.3598 122.223 27.7113 129.98C28.0673 137.723 29.2931 143.008 31.09 147.632C32.949 152.415 35.4338 156.473 39.4776 160.515C43.5184 164.561 47.5758 167.051 52.356 168.909C56.9831 170.708 62.2693 171.933 70.01 172.288C77.7674 172.641 80.2446 172.727 99.9939 172.727C119.746 172.727 122.218 172.641 129.975 172.288C137.717 171.933 143.008 170.708 147.635 168.909C152.417 167.051 156.468 164.561 160.509 160.515C164.554 156.473 167.039 152.415 168.902 147.633C170.69 143.008 171.918 137.721 172.281 129.982C172.63 122.224 172.721 119.751 172.721 100C172.721 80.2485 172.63 77.7697 172.281 70.0121C171.918 62.2697 170.69 56.9848 168.902 52.3606C167.039 47.5772 164.554 43.5197 160.509 39.4773C156.463 35.4318 152.418 32.9469 147.63 31.0909C142.994 29.2924 137.706 28.0666 129.964 27.7121C122.207 27.3591 119.737 27.2727 99.9803 27.2727H100.003ZM93.479 40.3788C95.4153 40.3757 97.5758 40.3788 100.003 40.3788C119.421 40.3788 121.722 40.4485 129.39 40.7969C136.481 41.1212 140.329 42.306 142.893 43.3015C146.286 44.6197 148.706 46.1954 151.25 48.7409C153.795 51.2863 155.371 53.7106 156.692 57.1045C157.688 59.6651 158.874 63.5136 159.197 70.6045C159.545 78.2712 159.621 80.5742 159.621 99.9833C159.621 119.392 159.545 121.695 159.197 129.362C158.872 136.453 157.688 140.301 156.692 142.862C155.374 146.256 153.795 148.673 151.25 151.217C148.705 153.762 146.288 155.338 142.893 156.656C140.332 157.656 136.481 158.838 129.39 159.162C121.724 159.511 119.421 159.586 100.003 159.586C80.5839 159.586 78.2825 159.511 70.6161 159.162C63.5254 158.835 59.677 157.65 57.1119 156.655C53.7181 155.336 51.2939 153.761 48.7485 151.215C46.2032 148.67 44.6274 146.251 43.3063 142.856C42.3109 140.295 41.1245 136.447 40.8018 129.356C40.4533 121.689 40.3836 119.386 40.3836 99.9651C40.3836 80.5439 40.4533 78.253 40.8018 70.5863C41.126 63.4954 42.3109 59.6469 43.3063 57.0833C44.6244 53.6894 46.2032 51.2651 48.7485 48.7197C51.2939 46.1742 53.7181 44.5985 57.1119 43.2772C59.6755 42.2772 63.5254 41.0954 70.6161 40.7697C77.3249 40.4666 79.9249 40.3757 93.479 40.3606V40.3788ZM138.823 52.4545C134.005 52.4545 130.096 56.3591 130.096 61.1788C130.096 65.9969 134.005 69.906 138.823 69.906C143.641 69.906 147.55 65.9969 147.55 61.1788C147.55 56.3606 143.641 52.4515 138.823 52.4515V52.4545ZM100.003 62.6515C79.3779 62.6515 62.6557 79.3742 62.6557 100C62.6557 120.626 79.3779 137.341 100.003 137.341C120.628 137.341 137.344 120.626 137.344 100C137.344 79.3742 120.627 62.6515 100.002 62.6515H100.003ZM100.003 75.7575C113.391 75.7575 124.245 86.6106 124.245 100C124.245 113.388 113.391 124.242 100.003 124.242C86.614 124.242 75.7614 113.388 75.7614 100C75.7614 86.6106 86.614 75.7575 100.003 75.7575Z" fill="black"/>
</svg>
