<svg width="272" height="272" viewBox="0 0 272 272" fill="none" xmlns="http://www.w3.org/2000/svg">
<path fill-rule="evenodd" clip-rule="evenodd" d="M60.7621 198.659C52.6374 212.152 40.9239 228.735 32.9026 242.274C30.3756 239.396 28.283 237.515 25.5323 234.202C21.885 245.896 21.2102 255.26 21.2102 265.911C29.2525 264.385 44.8354 257.576 52.9582 251.825C50.9383 251.099 46.6605 249.855 42.7296 249.012C51.4764 237.561 65.1163 222.856 74.7822 212.172C75.589 211.28 76.4 210.393 77.2141 209.508C92.4549 217.756 110.313 222.924 130.386 223.735C200.68 226.578 250.375 179.481 243.975 111.675C239.101 60.0398 191.41 14.3754 141.488 7.11488C126.643 3.44825 102.51 9.97664 89.6066 15.0622C48.9844 31.0706 13.5719 71.4427 18.6134 122.137C21.4984 151.144 36.3893 179.338 60.7621 198.659Z" fill="white" stroke="#161212" stroke-width="4.93587" stroke-miterlimit="1.5" stroke-linecap="round" stroke-linejoin="round"/>
<path d="M176.7 6.40039C174.551 9.45058 172.759 12.669 171.035 15.971" stroke="#161212" stroke-width="4.93587" stroke-miterlimit="1.5" stroke-linecap="round" stroke-linejoin="round"/>
<path d="M188.85 12.8994C186.447 15.8106 184.991 19.0272 183.303 22.3365" stroke="#161212" stroke-width="4.93587" stroke-miterlimit="1.5" stroke-linecap="round" stroke-linejoin="round"/>
<path d="M202.274 21.292C200.186 24.5446 198.533 28.0233 196.604 31.3564" stroke="#161212" stroke-width="4.93587" stroke-miterlimit="1.5" stroke-linecap="round" stroke-linejoin="round"/>
<path d="M214.173 29.4824C212.425 33.5933 210.775 37.7883 208.661 41.7293" stroke="#161212" stroke-width="4.93587" stroke-miterlimit="1.5" stroke-linecap="round" stroke-linejoin="round"/>
<path d="M226.567 42.7988C224.135 46.6672 222.473 50.8501 220.229 54.7874" stroke="#161212" stroke-width="4.93587" stroke-miterlimit="1.5" stroke-linecap="round" stroke-linejoin="round"/>
<path d="M238.284 59.248C235.705 63.1691 233.218 66.9842 231.162 71.1955" stroke="#161212" stroke-width="4.93587" stroke-miterlimit="1.5" stroke-linecap="round" stroke-linejoin="round"/>
<path d="M246.955 77.8132C244.184 81.9731 242.037 86.3629 239.523 90.6244" stroke="#161212" stroke-width="4.93587" stroke-miterlimit="1.5" stroke-linecap="round" stroke-linejoin="round"/>
<path d="M253.388 92.7119C250.178 97.7567 246.511 102.709 243.572 107.919" stroke="#161212" stroke-width="4.93587" stroke-miterlimit="1.5" stroke-linecap="round" stroke-linejoin="round"/>
<path d="M254 115.823C250.646 120.466 247.746 125.383 244.393 130.031" stroke="#161212" stroke-width="4.93587" stroke-miterlimit="1.5" stroke-linecap="round" stroke-linejoin="round"/>
<path d="M253.455 140.822C249.665 145.229 245.312 150.325 242.309 155.329" stroke="#161212" stroke-width="4.93587" stroke-miterlimit="1.5" stroke-linecap="round" stroke-linejoin="round"/>
<path d="M246.205 164.637C232.929 189.629 205.938 216.987 177.8 224.777" stroke="#161212" stroke-width="4.93587" stroke-miterlimit="1.5" stroke-linecap="round" stroke-linejoin="round"/>
<path d="M60.1394 242.262C66.3306 232.79 74.677 223 83.1892 215.403" stroke="#161212" stroke-width="4.93587" stroke-miterlimit="1.5" stroke-linecap="round" stroke-linejoin="round"/>
<path d="M86.1294 226.868C88.8741 223.649 91.5787 220.252 94.4667 217.161" stroke="#161212" stroke-width="4.93587" stroke-miterlimit="1.5" stroke-linecap="round" stroke-linejoin="round"/>
<path d="M97.1342 228.485C100.546 226.23 102.882 223.071 105.915 220.43" stroke="#161212" stroke-width="4.93587" stroke-miterlimit="1.5" stroke-linecap="round" stroke-linejoin="round"/>
<path d="M112.658 232.229C114.986 229.215 117.273 225.546 120.108 222.975" stroke="#161212" stroke-width="4.93587" stroke-miterlimit="1.5" stroke-linecap="round" stroke-linejoin="round"/>
<path d="M129.379 234.581C131.988 231.127 134.07 227.33 136.669 223.882" stroke="#161212" stroke-width="4.93587" stroke-miterlimit="1.5" stroke-linecap="round" stroke-linejoin="round"/>
<path d="M145.724 235.203C148.353 231.06 151.301 226.058 154.905 222.613" stroke="#161212" stroke-width="4.93587" stroke-miterlimit="1.5" stroke-linecap="round" stroke-linejoin="round"/>
<path d="M163.869 232.394C166.008 227.74 169.385 223.803 171.73 219.261" stroke="#161212" stroke-width="4.93587" stroke-miterlimit="1.5" stroke-linecap="round" stroke-linejoin="round"/>
</svg>
