<svg width="200" height="200" viewBox="0 0 200 200" fill="none" xmlns="http://www.w3.org/2000/svg">
<path d="M144.365 91.4891C120.19 77.1318 80.3118 75.8117 57.2332 82.8171C53.5273 83.941 49.6082 81.8489 48.4851 78.143C47.362 74.4352 49.4523 70.5187 53.161 69.3921C79.6535 61.3496 123.694 62.9035 151.526 79.4245C154.859 81.4029 155.953 85.7081 153.977 89.0361C151.999 92.3695 147.691 93.4684 144.365 91.4891ZM143.574 112.754C141.877 115.506 138.279 116.37 135.53 114.68C115.375 102.291 84.641 98.7023 60.7959 105.94C57.7034 106.875 54.4372 105.131 53.4986 102.045C52.5663 98.9521 54.3109 95.6922 57.3971 94.7518C84.6375 86.4863 118.501 90.4896 141.65 104.715C144.399 106.408 145.264 110.009 143.574 112.754ZM134.397 133.176C133.049 135.387 130.171 136.079 127.969 134.732C110.356 123.968 88.1885 121.537 62.082 127.5C59.5663 128.077 57.0595 126.501 56.4854 123.985C55.9096 121.47 57.4795 118.962 60.0015 118.388C88.57 111.858 113.077 114.668 132.845 126.748C135.049 128.094 135.744 130.973 134.397 133.176ZM100 25C58.5793 25 25 58.5786 25 99.9991C25 141.424 58.5793 175 100 175C141.422 175 175 141.424 175 99.9991C175 58.5786 141.422 25 100 25Z" fill="#161212"/>
</svg>
