<svg width="359" height="352" viewBox="0 0 359 352" fill="none" xmlns="http://www.w3.org/2000/svg">
<path fill-rule="evenodd" clip-rule="evenodd" d="M162.822 265.781C218.216 274.225 225.541 251.744 231.682 216.853C239.447 172.733 210.602 95.413 159.401 90.7301C126.842 87.7518 118.198 124.015 98.646 143.994C70.775 172.473 50.8595 185.371 17.5756 206.377C-5.96204 221.231 7.75551 265.257 32.8055 277.042C46.4171 283.446 63.0024 276.022 76.5648 273.471C105.03 268.117 133.736 261.348 162.822 265.781Z" fill="white" stroke="black" stroke-width="10.2016" stroke-miterlimit="1.5" stroke-linecap="round" stroke-linejoin="round"/>
<path d="M220.773 204.273C219.063 166.962 202.468 111.693 159.319 104.277C135.023 101.774 126.946 136.951 125.878 155.088C123.656 192.82 146.418 247.703 189.469 252.571C215.005 255.459 221.642 223.224 220.773 204.273Z" stroke="black" stroke-width="10.2016" stroke-miterlimit="1.5" stroke-linecap="round" stroke-linejoin="round"/>
<path fill-rule="evenodd" clip-rule="evenodd" d="M172.429 160.61C163.302 164.75 168.146 180.849 171.892 190.565C173.531 194.815 179.53 203.103 183.349 201.455C195.294 196.304 182.885 157.354 172.429 160.61Z" stroke="black" stroke-width="10.2016" stroke-miterlimit="1.5" stroke-linecap="round" stroke-linejoin="round"/>
<path d="M88.4274 271.207C69.5096 261.051 55.9988 233.382 50.4209 214.043C47.8815 205.239 46.456 195.465 48.4511 186.396" stroke="black" stroke-width="10.2016" stroke-miterlimit="1.5" stroke-linecap="round" stroke-linejoin="round"/>
<path d="M21.7753 236.076C22.9769 242.603 25.4343 249.039 29.7126 254.175" stroke="black" stroke-width="10.2016" stroke-miterlimit="1.5" stroke-linecap="round" stroke-linejoin="round"/>
<path d="M35.6736 228.205C37.3094 235.174 40.4438 241.487 45.3302 246.757" stroke="black" stroke-width="10.2016" stroke-miterlimit="1.5" stroke-linecap="round" stroke-linejoin="round"/>
<path fill-rule="evenodd" clip-rule="evenodd" d="M102.513 268.58C96.7094 269.464 89.7497 270.906 83.1648 272.187C85.8807 277.545 89.6225 284.182 93.7324 288.627C95.4952 290.533 97.3655 292.518 99.964 293.22C100.997 293.499 102.129 293.518 103.191 293.428C106.342 293.164 114.251 292.226 114.554 287.923C114.75 285.127 112.557 282.294 110.978 280.189C108.127 276.387 105.44 272.46 102.8 268.512" fill="white"/>
<path d="M102.513 268.58C96.7094 269.464 89.7497 270.906 83.1648 272.187C85.8807 277.545 89.6225 284.182 93.7324 288.627C95.4952 290.533 97.3655 292.518 99.964 293.22C100.997 293.499 102.129 293.518 103.191 293.428C106.342 293.164 114.251 292.226 114.554 287.923C114.75 285.127 112.557 282.294 110.978 280.189C108.127 276.387 105.44 272.46 102.8 268.512" stroke="black" stroke-width="10.2016" stroke-miterlimit="1.5" stroke-linecap="round" stroke-linejoin="round"/>
<path d="M239.159 256.55C254.605 260.831 270.183 264.708 285.48 269.536C280.781 260.999 278.695 249.572 275.784 240.379C294.455 238.323 313.532 236.453 332.012 233.269C320.424 222.64 309.953 208.46 300.53 196.091C318.318 191.163 335.809 185.002 353.217 178.907C335.482 166.807 317.802 154.053 299.272 143.241C311.481 126.639 322.851 109.361 335.719 93.2661C314.218 93.077 292.71 91.7773 271.21 91.7331C277.253 74.0085 285.047 56.7071 291.692 39.2011C267.812 46.6168 244.829 56.4908 220.684 63.1901C220.279 48.8508 220.264 34.5091 219.051 20.2074C206.907 32.0841 194.919 44.0354 182.059 55.1508C178.745 47.2013 175.366 39.3155 171.699 31.5183C167.113 43.7274 163.725 56.3384 160.409 68.9388" stroke="black" stroke-width="10.2016" stroke-miterlimit="1.5" stroke-linecap="round" stroke-linejoin="round"/>
<path d="M83.1698 272.195C85.8854 277.551 89.6256 284.184 93.7337 288.628C95.4965 290.534 97.3668 292.519 99.9653 293.22C100.998 293.499 102.13 293.518 103.192 293.429C105.473 293.237 110.248 292.693 112.825 290.775C114.107 292.117 115.525 293.52 116.994 294.972C123.618 301.527 131.265 309.092 132.037 316.613C132.608 322.164 127.554 326.864 122.891 329.009C112.787 333.658 102.513 332.481 93.159 326.67C76.6919 316.439 67.4908 296.875 60.6181 279.619C60.5973 279.566 60.5744 279.509 60.55 279.448C60.3368 278.916 60.0018 278.079 59.8458 277.522C66.7431 275.536 75.5025 273.693 83.1698 272.195Z" fill="white"/>
<path d="M172.23 160.701C163.373 164.984 168.173 180.918 171.892 190.562C173.422 194.529 178.749 202.013 182.558 201.654C182.571 201.687 182.584 201.72 182.597 201.753C174.627 205.879 168.248 209.832 162.13 213.623C156.633 217.03 151.347 220.306 145.308 223.458C139.58 215.61 133.526 201.832 132.267 197.566C132.003 196.673 131.745 195.807 131.492 194.96C129.488 188.247 127.822 182.669 126.545 173.345C132.37 171.639 138.565 170.046 144.824 168.437C154.152 166.039 163.624 163.603 172.23 160.701Z" fill="white"/>
<path d="M83.1698 272.195C85.8854 277.551 89.6256 284.184 93.7337 288.628C95.4965 290.534 97.3668 292.519 99.9653 293.22C100.998 293.499 102.13 293.518 103.192 293.429C105.473 293.237 110.248 292.693 112.825 290.775C114.107 292.117 115.525 293.52 116.994 294.972C123.618 301.527 131.265 309.092 132.037 316.613C132.608 322.164 127.554 326.864 122.891 329.009C112.787 333.658 102.513 332.481 93.159 326.67C76.6919 316.439 67.4908 296.875 60.6181 279.619C60.5973 279.566 60.5744 279.509 60.55 279.448C60.3368 278.916 60.0018 278.079 59.8458 277.522C66.7431 275.536 75.5025 273.693 83.1698 272.195Z" stroke="black" stroke-width="10.2016" stroke-miterlimit="1.5" stroke-linecap="round" stroke-linejoin="round"/>
<path d="M172.23 160.701C163.373 164.984 168.173 180.918 171.892 190.562C173.422 194.529 178.749 202.013 182.558 201.654C182.571 201.687 182.584 201.72 182.597 201.753C174.627 205.879 168.248 209.832 162.13 213.623C156.633 217.03 151.347 220.306 145.308 223.458C139.58 215.61 133.526 201.832 132.267 197.566C132.003 196.673 131.745 195.807 131.492 194.96C129.488 188.247 127.822 182.669 126.545 173.345C132.37 171.639 138.565 170.046 144.824 168.437C154.152 166.039 163.624 163.603 172.23 160.701Z" stroke="black" stroke-width="10.2016" stroke-miterlimit="1.5" stroke-linecap="round" stroke-linejoin="round"/>
</svg>
