<svg width="260" height="327" viewBox="0 0 260 327" fill="none" xmlns="http://www.w3.org/2000/svg">
<path fill-rule="evenodd" clip-rule="evenodd" d="M175.144 2.79385C160.617 6.20171 150.394 15.3491 131.381 42.4321C126 50.1443 120.619 56.422 119.364 56.422C115.598 56.422 105.195 62.8784 101.07 71.8465C98.9172 76.5107 94.7922 82.6081 91.923 85.6575C81.8793 98.7506 95.5102 99.2884 72.5523 128.883C37.757 174.081 23.7658 196.501 22.51 208.697C21.0754 223.764 -4.03379 303.757 0.988044 317.568C4.39508 327.253 15.8747 329.227 32.555 324.204C62.5072 315.236 116.137 275.777 126.361 266.99C139.454 255.689 176.221 190.761 180.705 190.582C185.727 190.402 196.13 185.38 197.923 183.587C206.175 175.337 229.671 135.698 231.822 125.475C232.719 121.171 231.463 117.225 231.463 112.203C231.463 109.153 235.948 102.159 244.736 91.2172C262.313 69.515 262.492 68.9772 252.089 47.4539C233.437 9.96801 208.326 -4.73918 175.144 2.79385ZM198.641 11.7618C214.066 15.5283 228.774 28.4422 237.562 45.4815C245.992 62.1618 244.377 66.2868 216.937 99.8276C216.219 100.544 214.066 95.8814 210.838 91.0384C198.461 72.0266 178.015 58.2156 150.573 55.3463C139.991 54.2694 137.48 58.3944 155.954 33.2852C162.412 24.4963 166.178 19.6535 169.047 16.6044C173.89 11.7618 184.293 8.35404 198.641 11.7618ZM156.672 68.0804C181.602 76.1517 190.39 81.3523 204.919 108.435C214.245 125.834 213.348 123.861 202.766 136.595C198.64 141.617 198.282 141.617 197.027 138.389C192.723 126.371 189.136 119.915 178.912 110.05C160.079 93.9076 154.878 98.2128 170.124 115.79C187.521 136.057 191.108 147.716 184.471 162.781C180.527 171.571 177.656 174.619 176.759 170.853C165.46 129.062 140.529 111.306 112.549 108.794C100.891 107.719 99.2762 105.028 105.734 97.8538C109.679 93.5486 115.419 95.5224 129.409 97.316C135.686 98.2128 136.045 89.6037 129.05 87.8101C119.903 85.4773 116.853 82.4293 123.848 71.6676C130.305 62.1618 136.404 61.4438 156.672 68.0804ZM139.811 76.6895C136.404 78.8421 135.506 83.3261 147.165 87.4511C158.285 91.3974 164.025 88.5268 164.025 83.5049C164.025 81.5325 162.59 78.4831 157.747 77.4075C151.291 75.7927 141.785 75.4337 139.811 76.6895ZM122.234 119.915C124.207 121.171 124.387 121.35 117.75 131.214C101.429 155.428 94.7922 164.754 89.9492 170.315C87.2588 173.364 81.1613 182.511 76.3183 190.582C60.7136 217.128 47.0841 225.558 41.1641 212.284C39.0129 207.622 39.5493 202.241 42.2397 198.114C49.952 186.277 91.7442 120.453 101.967 117.762C110.397 115.431 119.185 117.943 122.234 119.915ZM143.22 130.496C156.492 144.307 158.285 153.097 147.883 165.831C128.512 189.686 98.0204 230.758 85.8242 239.548C77.5741 245.466 73.6279 228.247 75.9607 217.487C79.0087 202.957 91.205 183.408 118.109 148.075C133.534 127.448 136.224 123.323 143.22 130.496ZM161.694 174.799C162.231 178.744 164.384 184.125 160.079 190.045C157.029 194.348 147.165 210.67 139.273 223.763C125.643 246.721 107.706 261.966 106.272 258.022C104.478 253.179 114.701 230.221 124.207 217.128C148.061 185.023 159.361 159.015 161.694 174.799ZM61.9694 232.193C62.5072 246.363 70.9375 252.461 84.9273 248.694C93.8954 246.363 93.8954 246.183 90.3082 254.613C88.6948 258.379 87.798 263.76 88.1556 266.631C89.0524 272.37 87.08 273.087 73.2703 281.876C71.2965 283.131 68.7849 282.593 67.5304 280.62C60.356 269.679 50.3109 264.119 39.0115 262.325C27.712 260.532 28.43 262.506 31.837 244.569L34.7076 229.324C37.0391 229.324 45.6481 231.296 53.7194 227.709C57.1278 226.274 60.715 224.84 60.715 224.84C60.715 224.84 61.9694 228.247 61.9694 232.193Z" fill="black"/>
</svg>
