<svg width="200" height="200" viewBox="0 0 200 200" fill="none" xmlns="http://www.w3.org/2000/svg">
<path d="M171.243 131.995C170.246 129.282 168.347 127.83 166.183 126.627C165.776 126.389 165.402 126.198 165.083 126.052C164.438 125.718 163.778 125.395 163.122 125.054C156.379 121.479 151.113 116.969 147.461 111.623C146.424 110.118 145.525 108.523 144.774 106.857C144.462 105.966 144.477 105.46 144.7 104.998C144.922 104.642 145.216 104.336 145.562 104.099C146.721 103.333 147.916 102.556 148.726 102.031C150.171 101.096 151.315 100.356 152.052 99.8313C154.82 97.8953 156.756 95.8383 157.966 93.5393C158.811 91.951 159.303 90.1994 159.41 88.4038C159.517 86.6082 159.236 84.8106 158.586 83.1333C156.753 78.308 152.195 75.3123 146.673 75.3123C145.508 75.3112 144.347 75.4341 143.208 75.679C142.904 75.745 142.599 75.8146 142.302 75.8916C142.354 72.5916 142.28 69.1083 141.987 65.68C140.946 53.6276 136.725 47.31 132.325 42.272C129.508 39.1149 126.189 36.444 122.502 34.3666C115.825 30.5533 108.254 28.6173 99.9999 28.6173C91.7463 28.6173 84.2113 30.5533 77.527 34.3666C73.8314 36.4447 70.5058 39.1209 67.6856 42.2866C63.2856 47.3246 59.0653 53.6533 58.024 65.6946C57.7306 69.123 57.6573 72.6246 57.705 75.9063C57.4079 75.8293 57.1073 75.7597 56.803 75.6937C55.6642 75.4488 54.5027 75.3259 53.338 75.327C47.8123 75.327 43.2473 78.3226 41.4213 83.148C40.7686 84.826 40.4848 86.6249 40.5892 88.4224C40.6936 90.2198 41.1837 91.9738 42.0263 93.565C43.24 95.864 45.1759 97.921 47.9443 99.857C48.6776 100.37 49.8253 101.111 51.27 102.057C52.0509 102.563 53.1913 103.304 54.3096 104.044C54.7009 104.297 55.0335 104.631 55.285 105.023C55.5196 105.504 55.527 106.021 55.1786 106.974C54.4377 108.605 53.553 110.167 52.535 111.642C48.9636 116.867 43.8523 121.296 37.3256 124.842C33.8679 126.675 30.2746 127.9 28.7566 132.025C27.6126 135.138 28.3606 138.68 31.2683 141.664C32.3354 142.778 33.5731 143.715 34.935 144.44C37.7685 145.997 40.7816 147.203 43.9073 148.03C44.5523 148.196 45.1647 148.47 45.7186 148.84C46.7783 149.768 46.628 151.165 48.0396 153.211C48.7482 154.268 49.6487 155.183 50.6943 155.909C53.6569 157.955 56.9863 158.084 60.5136 158.219C63.7 158.34 67.3116 158.48 71.4366 159.84C73.1453 160.405 74.92 161.497 76.977 162.773C81.916 165.809 88.6773 169.964 99.9926 169.964C111.308 169.964 118.117 165.787 123.093 162.74C125.135 161.486 126.899 160.405 128.56 159.855C132.685 158.491 136.296 158.355 139.483 158.234C143.01 158.098 146.339 157.97 149.302 155.924C150.54 155.06 151.572 153.934 152.323 152.624C153.339 150.897 153.313 149.691 154.267 148.847C154.786 148.495 155.361 148.232 155.968 148.07C159.136 147.24 162.19 146.024 165.061 144.447C166.508 143.671 167.811 142.652 168.911 141.433L168.948 141.389C171.676 138.471 172.362 135.031 171.243 131.995ZM161.186 137.4C155.051 140.788 150.974 140.425 147.802 142.467C145.107 144.202 146.702 147.942 144.744 149.291C142.339 150.952 135.229 149.174 126.044 152.206C118.469 154.71 113.636 161.912 100.011 161.912C86.3856 161.912 81.6666 154.725 73.9666 152.188C64.8 149.155 57.6756 150.934 55.2666 149.273C53.3123 147.923 54.9 144.183 52.2086 142.449C49.0333 140.407 44.956 140.77 38.8253 137.4C34.9203 135.244 37.1349 133.909 38.4366 133.279C60.6566 122.521 64.2023 105.911 64.36 104.679C64.5506 103.186 64.7633 102.013 63.1206 100.495C61.533 99.0283 54.4893 94.6687 52.535 93.3047C49.301 91.046 47.8783 88.791 48.927 86.019C49.6603 84.1013 51.4496 83.379 53.327 83.379C53.9203 83.3808 54.5117 83.4472 55.0906 83.577C58.64 84.347 62.0866 86.1253 64.0776 86.6056C64.3174 86.6672 64.5635 86.7004 64.811 86.7047C65.8743 86.7047 66.2483 86.1693 66.175 84.952C65.9476 81.069 65.3976 73.501 66.01 66.428C66.8496 56.6966 69.9846 51.875 73.71 47.6106C75.4993 45.561 83.907 36.6766 99.9853 36.6766C116.064 36.6766 124.493 45.5243 126.283 47.5666C130.012 51.831 133.15 56.6526 133.983 66.384C134.595 73.457 134.067 81.0286 133.818 84.908C133.733 86.1876 134.118 86.6606 135.182 86.6606C135.429 86.6567 135.675 86.6235 135.915 86.5616C137.91 86.0813 141.356 84.303 144.906 83.533C145.485 83.4032 146.076 83.3368 146.669 83.335C148.558 83.335 150.336 84.0683 151.069 85.975C152.118 88.747 150.703 91.002 147.465 93.2606C145.511 94.6246 138.467 98.9807 136.879 100.451C135.233 101.969 135.449 103.142 135.64 104.635C135.798 105.885 139.34 122.495 161.563 133.235C162.876 133.891 165.091 135.226 161.186 137.4Z" fill="#161212"/>
</svg>
