<svg width="170" height="119" viewBox="0 0 170 119" fill="none" xmlns="http://www.w3.org/2000/svg">
<path fill-rule="evenodd" clip-rule="evenodd" d="M151.026 3.67657C158.254 5.62261 163.953 11.3217 165.899 18.5499C169.513 31.7551 169.374 59.2776 169.374 59.2776C169.374 59.2776 169.374 86.6612 165.899 99.8664C163.953 107.095 158.254 112.794 151.026 114.74C137.821 118.215 84.9996 118.215 84.9996 118.215C84.9996 118.215 32.3176 118.215 18.9734 114.601C11.7452 112.655 6.04611 106.956 4.10007 99.7274C0.625 86.6612 0.625 59.1386 0.625 59.1386C0.625 59.1386 0.625 31.7551 4.10007 18.5499C6.04611 11.3217 11.8842 5.48361 18.9734 3.53757C32.1786 0.0625 84.9996 0.0625 84.9996 0.0625C84.9996 0.0625 137.821 0.0625 151.026 3.67657ZM112.105 58.1735L68.1802 83.472V32.875L112.105 58.1735Z" fill="#161212"/>
</svg>
